<svg xmlns="http://www.w3.org/2000/svg" width="656.29547" height="484.79956" viewBox="0 0 173.64485 128.26989"><g fill="#7a52e9" fill-rule="evenodd" stroke-linecap="round" stroke-linejoin="round" stroke-width=".265" aria-label="Ra" font-family="Whitney" font-size="168.01" font-weight="700" paint-order="stroke fill markers" style="-inkscape-font-specification:&quot;Whitney, Bold&quot;"><path d="M62.41719 42.43408c-.82685 11.05779-8.48217 16.55061-20.71276 15.63607l-8.87974-.66398 2.51812-33.676 9.21482.68904c12.39813.92706 18.66134 7.29216 17.85956 18.01487zm4.3715 31.66398c14.18946-5.00423 22.71072-15.3182 23.90088-31.23472 1.77896-23.791-13.68806-37.75194-41.66762-39.8441L8.64427 0 0 115.60416l28.48218 2.12975L31.4513 78.0264l7.87449.58881 22.24207 42.77202 29.6832-2.66634zM169.3852 128.26989l4.10915-54.95386c1.56599-20.94278-9.09558-29.32156-31.7138-31.01283-13.40337-1.00223-24.14645.72164-33.81696 3.87355l1.58757 19.32533c9.00034-3.20202 17.7204-4.90869 26.93522-4.21965 8.3771.6264 12.1601 4.11036 11.6214 11.31468l-.11276 1.50788c-32.38109.44286-47.80132 8.38768-49.24203 27.65504-1.11498 14.91126 7.51103 23.47478 20.57933 24.45196 11.22533.83937 19.46312-3.43054 26.69099-9.9662l.91122 10.34535zm-23.60762-24.50992c-4.82431 3.68275-9.67836 5.51002-14.53708 5.14671-4.69119-.35078-7.66152-3.43703-7.27315-8.63083.5387-7.20432 5.65583-12.54997 23.11313-13.94027z"/></g></svg>